<svg width="40" height="40" viewBox="0 0 40 40" fill="none" xmlns="http://www.w3.org/2000/svg">
<path d="M2 18.4043V21.5957L7.4043 27L8.81836 25.5859L4.41406 21.1816H10V18.8184H4.41406L8.81836 14.4141L7.4043 13L2 18.4043Z" fill="#717171"/>
<path d="M12 21.1816H14V18.8184H12V21.1816Z" fill="#717171"/>
<path d="M16 21.1816H18V18.8184H16V21.1816Z" fill="#717171"/>
<path d="M20 21.1816H22V18.8184H20V21.1816Z" fill="#717171"/>
<path d="M24 21.1816H26V18.8184H24V21.1816Z" fill="#717171"/>
<path d="M28 21.1816H30V18.8184H28V21.1816Z" fill="#717171"/>
<path d="M32 21.1816H34V18.8184H32V21.1816Z" fill="#717171"/>
<path d="M36 21.1816H38V18.8184H36V21.1816Z" fill="#717171"/>
</svg>
