<svg width="40" height="40" viewBox="0 0 40 40" fill="none" xmlns="http://www.w3.org/2000/svg">
<path d="M38 18.4043V21.5957L32.5957 27L31.1816 25.5859L35.5859 21.1816H30V18.8184H35.5859L31.1816 14.4141L32.5957 13L38 18.4043Z" fill="#717171"/>
<path d="M28 21.1816H26V18.8184H28V21.1816Z" fill="#717171"/>
<path d="M24 21.1816H22V18.8184H24V21.1816Z" fill="#717171"/>
<path d="M20 21.1816H18V18.8184H20V21.1816Z" fill="#717171"/>
<path d="M16 21.1816H14V18.8184H16V21.1816Z" fill="#717171"/>
<path d="M12 21.1816H10V18.8184H12V21.1816Z" fill="#717171"/>
<path d="M8 21.1816H6V18.8184H8V21.1816Z" fill="#717171"/>
<path d="M4 21.1816H2V18.8184H4V21.1816Z" fill="#717171"/>
</svg>
