<svg width="16" height="16" viewBox="0 0 16 16" fill="none" xmlns="http://www.w3.org/2000/svg">
<path fill-rule="evenodd" clip-rule="evenodd" d="M12 1C13.6569 1 15 2.34315 15 4V9C15 10.6051 13.7394 11.9158 12.1543 11.9961L12 12H10C10 13.6051 8.73945 14.9158 7.1543 14.9961L7 15H4L3.8457 14.9961C2.31166 14.9184 1.08163 13.6883 1.00391 12.1543L1 12V7C1 5.34315 2.34315 4 4 4H6C6 2.34315 7.34315 1 9 1H12ZM4 5C2.96435 5 2.113 5.78722 2.01074 6.7959C2.00394 6.86302 2 6.93108 2 7V12C2 12.0689 2.00394 12.137 2.01074 12.2041C2.113 13.2128 2.96435 14 4 14H7C8.10457 14 9 13.1046 9 12V7C9 5.89543 8.10457 5 7 5H4ZM9 2C7.89543 2 7 2.89543 7 4C8.65685 4 10 5.34315 10 7V11H12C13.1046 11 14 10.1046 14 9V4C14 2.89543 13.1046 2 12 2H9Z" fill="#2E2F35"/>
</svg>
